<svg width="191" height="46" viewBox="0 0 191 46" fill="none" xmlns="http://www.w3.org/2000/svg">
    <path d="M21.613 16.112H16.461L12.653 34H5.741L9.549 16.112H4.461L5.037 13.68H22.157L21.613 16.112ZM26.787 34H19.875L24.195 13.68H31.139L26.787 34ZM47.3685 34H39.8805L36.3285 19.312L33.1925 34H30.3125L34.6325 13.68H42.2805L45.6405 28.56L48.8085 13.68H51.7525L47.3685 34ZM63.3543 26.32L61.7223 34H54.7783L56.5383 25.776L53.4023 13.68H61.0823L63.2583 21.712L68.0583 13.68H71.5143L63.3543 26.32ZM184.35 34H177.438L181.758 13.68H188.702L184.35 34Z" fill="#CA789B"/>
    <path d="M71.6523 13.68H79.4603L80.0043 27.536L85.3483 13.68H91.6843L92.5163 27.536L97.8923 13.68H101.252L93.3483 34H86.1483L85.4763 22.512L80.6763 34H72.9963L71.6523 13.68ZM173.912 34H167L171.32 13.68H178.264L173.912 34Z" fill="#768893"/>
    <path d="M111.759 20.08L116.655 13.68H120.495L112.911 22.8L117.679 34H109.775L107.055 27.632L102.127 34H98.287L105.839 24.752L101.135 13.68H109.039L111.759 20.08ZM135.798 32.272C135.265 32.528 134.71 32.784 134.134 33.04C133.579 33.2747 132.982 33.488 132.342 33.68C131.702 33.8507 130.998 33.9893 130.23 34.096C129.483 34.2027 128.662 34.256 127.766 34.256C124.907 34.256 122.699 33.616 121.142 32.336C119.606 31.056 118.838 28.9227 118.838 25.936C118.838 24.208 119.105 22.5867 119.638 21.072C120.171 19.536 120.961 18.2027 122.006 17.072C123.051 15.92 124.342 15.0133 125.878 14.352C127.414 13.6907 129.174 13.36 131.158 13.36C132.097 13.36 132.95 13.424 133.718 13.552C134.507 13.68 135.211 13.8507 135.83 14.064C136.47 14.256 137.035 14.4693 137.526 14.704C138.038 14.9387 138.497 15.1627 138.902 15.376L137.75 21.328H131.99C132.011 21.1147 132.033 20.8373 132.054 20.496C132.097 20.1547 132.129 19.8133 132.15 19.472C132.171 19.1093 132.193 18.7573 132.214 18.416C132.235 18.0747 132.246 17.7867 132.246 17.552C132.246 17.3813 132.235 17.1893 132.214 16.976C132.193 16.7413 132.139 16.5173 132.054 16.304C131.969 16.0907 131.83 15.92 131.638 15.792C131.467 15.6427 131.233 15.568 130.934 15.568C130.379 15.568 129.867 15.8027 129.398 16.272C128.95 16.72 128.545 17.328 128.182 18.096C127.819 18.8427 127.499 19.696 127.222 20.656C126.945 21.616 126.71 22.5973 126.518 23.6C126.347 24.5813 126.209 25.552 126.102 26.512C126.017 27.472 125.974 28.3147 125.974 29.04C125.974 29.2533 125.985 29.52 126.006 29.84C126.027 30.16 126.091 30.4693 126.198 30.768C126.305 31.0667 126.465 31.3227 126.678 31.536C126.913 31.7493 127.222 31.856 127.606 31.856C128.267 31.856 128.907 31.4507 129.526 30.64C130.145 29.808 130.689 28.336 131.158 26.224H137.078L135.798 32.272ZM140.593 13.68H147.889L148.977 27.44L155.633 13.68H158.801L149.329 34H141.777L140.593 13.68ZM163.475 34H156.562L160.883 13.68H167.827L163.475 34Z" fill="#579EC6"/>
</svg>
